SplineFontDB: 3.2
FontName: Sudoeste-20047-Imprenta
FullName: Sudoeste L2/20-047 Imprenta
FamilyName: Sudoeste 20047-Imprenta
Weight: Regular
Copyright: Copyright (c) 2022, hector
Version: 001.000
ItalicAngle: 0
UnderlinePosition: -100
UnderlineWidth: 50
Ascent: 800
Descent: 200
InvalidEm: 0
sfntRevision: 0x00010000
LayerCount: 2
Layer: 0 0 "Back" 1
Layer: 1 0 "Fore" 0
XUID: [1021 560 92871842 5223223]
StyleMap: 0x0000
FSType: 0
OS2Version: 0
OS2_WeightWidthSlopeOnly: 0
OS2_UseTypoMetrics: 1
CreationTime: 1628959306
ModificationTime: 1660924230
PfmFamily: 17
TTFWeight: 400
TTFWidth: 5
LineGap: 90
VLineGap: 0
Panose: 2 0 5 3 0 0 0 0 0 0
OS2TypoAscent: 800
OS2TypoAOffset: 0
OS2TypoDescent: -200
OS2TypoDOffset: 0
OS2TypoLinegap: 90
OS2WinAscent: 705
OS2WinAOffset: 0
OS2WinDescent: 0
OS2WinDOffset: 0
HheadAscent: 705
HheadAOffset: 0
HheadDescent: 0
HheadDOffset: 0
OS2SubXSize: 650
OS2SubYSize: 700
OS2SubXOff: 0
OS2SubYOff: 140
OS2SupXSize: 650
OS2SupYSize: 700
OS2SupXOff: 0
OS2SupYOff: 480
OS2StrikeYSize: 49
OS2StrikeYPos: 258
OS2CapHeight: 679
OS2XHeight: 154
OS2Vendor: 'PfEd'
OS2CodePages: 00000001.00000000
OS2UnicodeRanges: 00000005.00000000.00000000.00000000
MarkAttachClasses: 1
DEI: 91125
MacFeat: 0 0 0
MacName: 0 0 24 "All Typographic Features"
MacName: 0 1 24 "Fonctions typographiques"
MacName: 0 2 32 "Alle typografischen Mglichkeiten"
MacName: 0 3 21 "Funzioni Tipografiche"
MacName: 0 4 28 "Alle typografische kenmerken"
MacSetting: 0
MacName: 0 0 17 "All Type Features"
MacName: 0 1 31 "Toutes fonctions typographiques"
MacName: 0 2 23 "Alle Auszeichnungsarten"
MacName: 0 3 17 "Tutte le Funzioni"
MacName: 0 4 18 "Alle typekenmerken"
MacFeat: 1 0 0
MacName: 0 0 9 "Ligatures"
MacName: 0 1 9 "Ligatures"
MacName: 0 2 9 "Ligaturen"
MacName: 0 3 8 "Legature"
MacName: 0 4 9 "Ligaturen"
MacSetting: 2
MacName: 0 0 16 "Common Ligatures"
MacName: 0 1 18 "Ligatures Usuelles"
MacName: 0 2 17 "Normale Ligaturen"
MacName: 0 3 18 "Legature pi Comuni"

StartChar: A
Encoding: 0 66112 0
Width: 633
Flags: HMW
LayerCount: 2
Fore
SplineSet
250 705 m 1
 297 705 l 1
 547 62 l 1
 500 44 l 1
 392 322 l 1
 115 221 l 1
 47 44 l 1
 0 62 l 1
 250 705 l 1
273 627 m 1
 140 283 l 1
 374 368 l 1
 273 627 l 1
EndSplineSet
Validated: 1
EndChar

StartChar: E
Encoding: 1 66113 1
Width: 711
VWidth: 0
Flags: HW
LayerCount: 2
Fore
SplineSet
274 580 m 0
 429 580 549 470 549 317 c 0
 549 173 433 54 274 54 c 0
 138 54 -0 158 -0 314 c 0
 -0 315 -0 316 0 317 c 0
 -0 392 25 459 73 506 c 0
 121 553 191 580 274 580 c 0
280 530 m 5
 274 530 l 1
 201 530 146 507 108 470 c 0
 70 433 50 381 50 317 c 2
 50 316 l 2
 50 315 50 314 50 313 c 0
 50 187 163 104 274 104 c 0
 409 104 499 199 499 317 c 0
 499 444 412 530 280 530 c 5
EndSplineSet
Validated: 1
EndChar

StartChar: I
Encoding: 2 66114 2
Width: 592
VWidth: 0
Flags: HW
LayerCount: 2
Fore
SplineSet
48 703 m 1
 146 389 l 1
 237 474 l 1
 170 689 l 1
 218 703 l 1
 277 512 l 1
 407 633 l 1
 449 615 l 1
 449 53 l 1
 399 53 l 1
 399 557 l 1
 151 325 l 1
 110 336 l 1
 0 689 l 1
 48 703 l 1
EndSplineSet
EndChar

StartChar: U
Encoding: 3 66116 3
Width: 500
VWidth: 0
Flags: HW
LayerCount: 2
Fore
SplineSet
0 696 m 1
 50 696 l 1
 50 488 l 1
 300 488 l 1
 300 696 l 1
 350 696 l 1
 350 53 l 1
 300 53 l 1
 300 438 l 1
 25 438 l 1
 0 463 l 1
 0 696 l 1
EndSplineSet
EndChar

StartChar: KA
Encoding: 4 66128 4
Width: 556
VWidth: 0
Flags: HW
LayerCount: 2
Fore
SplineSet
48 54 m 1
 0 69 l 1
 200 712 l 1
 248 712 l 1
 448 69 l 1
 400 54 l 1
 224 620 l 1
 48 54 l 1
EndSplineSet
Validated: 1
EndChar

StartChar: KE
Encoding: 5 66130 5
Width: 590
VWidth: 0
Flags: HW
LayerCount: 2
Fore
SplineSet
394 696 m 1
 444 696 l 1
 444 53 l 1
 394 53 l 1
 394 696 l 1
35 689 m 1
 336 392 l 1
 337 357 l 1
 38 60 l 1
 3 96 l 1
 283 374 l 1
 0 653 l 1
 35 689 l 1
EndSplineSet
EndChar

StartChar: KI.WITH.ADDITIONAL.STROKE
Encoding: 6 66131 6
Width: 501
Flags: HW
LayerCount: 2
Fore
SplineSet
198 695 m 1
 198 695 l 1
 200 695 202 695 203 695 c 0
 304 693 388 617 399 517 c 1
 400 517 l 1
 400 500 l 1
 401 482 l 1
 399 482 l 1
 393 386 319 308 225 297 c 1
 225 53 l 1
 175 53 l 1
 175 297 l 1
 79 309 3 390 1 490 c 0
 1 492 1 494 1 496 c 0
 1 603 86 691 193 695 c 0
 195 695 197 695 198 695 c 1
223 649 m 1
 224 566 225 483 225 400 c 0
 225 380 225 361 225 341 c 1
 299 353 356 417 356 495 c 2
 356 499 l 1
 355 502 l 2
 352 578 295 638 223 649 c 1
173 648 m 1
 100 635 45 571 45 495 c 0
 45 494 45 492 45 491 c 0
 47 415 103 353 175 341 c 1
 175 444 175 546 173 648 c 1
EndSplineSet
Validated: 1
EndChar

StartChar: KO
Encoding: 7 66134 7
Width: 566
Flags: HW
LayerCount: 2
Fore
SplineSet
21 721 m 1
 421 721 l 1
 442 683 l 1
 251 374 l 1
 442 66 l 1
 421 28 l 1
 21 28 l 1
 0 66 l 1
 192 374 l 1
 0 683 l 1
 21 721 l 1
66 671 m 1
 221 422 l 1
 376 671 l 1
 66 671 l 1
221 327 m 1
 66 78 l 1
 376 78 l 1
 221 327 l 1
EndSplineSet
Validated: 1
EndChar

StartChar: S42
Encoding: 8 66156 8
Width: 453
Flags: HW
LayerCount: 2
Fore
SplineSet
326 721 m 1
 326 671 l 1
 244 671 170 670 121 656 c 0
 97 649 80 639 69 626 c 0
 57 612 51 595 51 568 c 0
 51 568 51 568 52 567 c 0
 56 565 65 561 77 559 c 0
 102 554 140 552 178 549 c 0
 216 545 256 540 289 526 c 0
 322 511 351 481 351 439 c 0
 351 418 344 399 331 385 c 0
 319 371 302 363 286 358 c 0
 258 351 227 350 196 350 c 0
 189 350 182 350 175 350 c 0
 138 350 101 349 79 342 c 0
 68 339 60 335 56 331 c 0
 52 326 50 321 50 310 c 0
 50 299 53 294 57 290 c 0
 61 286 68 281 80 278 c 0
 102 272 138 271 176 271 c 0
 182 271 188 271 195 271 c 0
 226 271 258 270 286 262 c 0
 303 257 319 249 331 236 c 0
 344 222 351 203 351 182 c 0
 351 144 337 112 314 89 c 0
 291 67 261 54 229 45 c 0
 171 29 103 28 45 28 c 0
 39 28 32 28 26 28 c 1
 26 78 l 1
 88 78 162 79 216 93 c 0
 243 101 265 111 279 125 c 0
 293 139 301 155 301 182 c 0
 301 193 298 198 294 202 c 0
 290 206 283 211 272 214 c 0
 250 220 213 221 176 221 c 0
 170 221 163 221 157 221 c 0
 125 221 94 222 66 230 c 0
 49 235 36 239 23 253 c 0
 10 267 0 285 0 306 c 2
 0 310 l 2
 0 310 6 350 19 364 c 0
 32 378 46 385 63 390 c 0
 97 399 138 400 175 400 c 0
 213 400 249 400 272 407 c 0
 283 410 290 414 294 418 c 0
 298 423 301 428 301 439 c 0
 301 461 292 470 269 480 c 0
 246 490 210 495 173 499 c 0
 137 502 99 504 68 510 c 0
 52 513 38 517 25 525 c 0
 12 533 2 544 2 561 c 2
 1 567 l 2
 1 567 11 635 30 658 c 0
 50 681 77 695 107 704 c 0
 162 720 229 721 302 721 c 0
 310 721 318 721 326 721 c 1
EndSplineSet
EndChar

StartChar: BI
Encoding: 9 66122 9
Width: 537
Flags: HW
LayerCount: 2
Fore
SplineSet
238 712 m 1
 438 470 l 1
 399 438 l 1
 243 627 l 1
 243 53 l 1
 193 53 l 1
 193 626 l 1
 39 438 l 1
 0 470 l 1
 199 712 l 1
 238 712 l 1
EndSplineSet
EndChar

StartChar: BO
Encoding: 10 66124 10
Width: 593
Flags: HW
LayerCount: 2
Fore
SplineSet
25 721 m 1
 425 721 l 1
 450 696 l 1
 450 53 l 1
 425 28 l 1
 25 28 l 1
 0 53 l 1
 0 696 l 1
 25 721 l 1
50 671 m 1
 50 78 l 1
 400 78 l 1
 400 671 l 1
 50 671 l 1
EndSplineSet
EndChar

StartChar: PU.BU
Encoding: 11 66125 11
Width: 564
Flags: HW
LayerCount: 2
Fore
SplineSet
417 720 m 1
 450 696 l 1
 450 53 l 1
 400 53 l 1
 400 151 l 1
 33 29 l 1
 25 53 l 1
 0 53 l 1
 0 696 l 1
 50 696 l 1
 50 598 l 1
 417 720 l 1
400 661 m 1
 50 546 l 1
 50 343 l 1
 400 459 l 1
 400 661 l 1
400 406 m 1
 50 290 l 1
 50 88 l 1
 400 203 l 1
 400 406 l 1
EndSplineSet
Validated: 1
EndChar

StartChar: TA
Encoding: 12 66137 12
Width: 672
Flags: HW
LayerCount: 2
Fore
SplineSet
34 547 m 1
 267 326 l 1
 500 547 l 1
 534 511 l 1
 303 291 l 1
 534 71 l 1
 500 35 l 1
 267 256 l 1
 34 35 l 1
 0 71 l 1
 231 291 l 1
 0 511 l 1
 34 547 l 1
EndSplineSet
EndChar

StartChar: TE.WITH.ADDITIONAL.STROKE
Encoding: 13 66138 13
Width: 612
Flags: HW
LayerCount: 2
Fore
SplineSet
0 696 m 1
 50 696 l 1
 50 468 l 1
 400 584 l 1
 400 696 l 1
 450 696 l 1
 450 53 l 1
 400 53 l 1
 400 281 l 1
 50 165 l 1
 50 53 l 1
 0 53 l 1
 0 696 l 1
400 531 m 1
 50 415 l 1
 50 218 l 1
 400 334 l 1
 400 531 l 1
EndSplineSet
EndChar

StartChar: TI
Encoding: 14 66141 14
Width: 570
Flags: HW
LayerCount: 2
Fore
SplineSet
222 720 m 1
 238 720 l 1
 379 670 455 536 455 374 c 0
 455 277 435 201 398 144 c 0
 360 86 304 50 237 29 c 1
 221 29 l 1
 151 54 94 90 56 147 c 0
 18 203 -0 277 0 374 c 0
 -0 376 -0 379 -0 381 c 0
 -0 459 16 530 51 589 c 0
 87 649 144 695 222 720 c 1
205 660 m 1
 154 638 118 605 93 563 c 0
 64 515 50 453 50 382 c 0
 50 380 50 377 50 375 c 2
 50 374 l 2
 50 283 67 220 98 175 c 0
 123 138 158 111 205 90 c 1
 205 660 l 1
255 658 m 1
 255 89 l 1
 297 107 331 134 356 171 c 0
 387 218 405 283 405 374 c 0
 405 507 353 608 255 658 c 1
EndSplineSet
EndChar

StartChar: TO
Encoding: 15 66142 15
Width: 603
Flags: HW
LayerCount: 2
Fore
SplineSet
117 706 m 1
 271 351 l 1
 424 706 l 1
 470 686 l 1
 294 279 l 1
 248 279 l 1
 71 686 l 1
 117 706 l 1
498 642 m 1
 544 622 l 1
 294 43 l 1
 248 43 l 1
 0 622 l 1
 46 642 l 1
 271 116 l 1
 498 642 l 1
EndSplineSet
Validated: 1
EndChar

StartChar: S1
Encoding: 16 66153 16
Width: 506
Flags: HW
LayerCount: 2
Fore
SplineSet
175 696 m 1
 225 696 l 1
 225 657 l 1
 400 657 l 1
 400 607 l 1
 225 607 l 1
 225 554 l 1
 400 554 l 1
 400 504 l 1
 225 504 l 1
 225 445 l 1
 400 445 l 1
 400 395 l 1
 225 395 l 1
 225 53 l 1
 175 53 l 1
 175 395 l 1
 0 395 l 1
 0 445 l 1
 175 445 l 1
 175 504 l 1
 0 504 l 1
 0 554 l 1
 175 554 l 1
 175 607 l 1
 1 607 l 1
 1 657 l 1
 175 657 l 1
 175 696 l 1
EndSplineSet
Validated: 1
EndChar

StartChar: S2
Encoding: 17 66155 17
Width: 681
Flags: HW
LayerCount: 2
Fore
SplineSet
45 711 m 1
 275 415 l 1
 505 711 l 1
 550 696 l 1
 550 53 l 1
 500 53 l 1
 500 623 l 1
 295 359 l 1
 255 359 l 1
 50 623 l 1
 50 53 l 1
 0 53 l 1
 0 696 l 1
 45 711 l 1
EndSplineSet
EndChar

StartChar: L
Encoding: 18 66146 18
Width: 430
Flags: HW
LayerCount: 2
Fore
SplineSet
200 715 m 1
 241 696 l 1
 241 53 l 1
 191 53 l 1
 191 643 l 1
 32 510 l 1
 0 548 l 1
 200 715 l 1
EndSplineSet
EndChar

StartChar: N
Encoding: 19 66149 19
Width: 580
Flags: HW
LayerCount: 2
Fore
SplineSet
305 711 m 1
 349 700 l 1
 449 57 l 1
 400 49 l 1
 309 633 l 1
 97 345 l 1
 52 356 l 1
 0 692 l 1
 49 700 l 1
 92 423 l 1
 305 711 l 1
EndSplineSet
EndChar

StartChar: R2
Encoding: 20 66152 20
Width: 658
Flags: HW
LayerCount: 2
Fore
SplineSet
72 706 m 1
 191 430 l 1
 210 432 230 434 251 434 c 0
 259 434 267 434 276 433 c 2
 276 433 l 2
 302 432 329 430 356 425 c 1
 477 706 l 1
 523 686 l 1
 404 411 l 1
 425 403 444 391 462 373 c 0
 516 320 548 226 550 53 c 1
 500 53 l 1
 498 219 466 299 427 337 c 0
 388 376 335 380 274 383 c 0
 266 383 257 384 250 384 c 0
 197 384 158 375 132 360 c 0
 101 344 83 321 71 291 c 0
 47 230 52 140 50 52 c 1
 0 54 l 1
 0 69 0 84 0 99 c 0
 0 104 0 109 0 114 c 0
 0 181 1 250 25 309 c 0
 40 348 67 382 108 404 c 0
 119 410 130 415 142 419 c 1
 26 686 l 1
 72 706 l 1
EndSplineSet
Validated: 1
EndChar

StartChar: R1
Encoding: 21 66151 21
Width: 362
Flags: HW
LayerCount: 2
Fore
SplineSet
161 718 m 1
 199 696 l 1
 199 53 l 1
 149 53 l 1
 149 331 l 1
 104 359 38 403 10 468 c 0
 4 484 0 502 0 520 c 0
 0 543 6 567 19 590 c 0
 42 633 87 675 161 718 c 1
149 651 m 1
 103 619 76 591 62 566 c 0
 53 550 49 535 49 522 c 0
 49 510 52 499 57 487 c 0
 72 452 112 417 149 391 c 1
 149 651 l 1
EndSplineSet
EndChar

StartChar: S80
Encoding: 22 66163 22
Width: 812
Flags: HW
LayerCount: 2
Fore
SplineSet
248 711 m 1
 293 700 l 1
 336 423 l 1
 548 711 l 1
 593 700 l 1
 693 57 l 1
 643 49 l 1
 552 633 l 1
 340 345 l 1
 295 356 l 1
 252 633 l 1
 40 345 l 1
 0 375 l 1
 248 711 l 1
EndSplineSet
EndChar

StartChar: S81
Encoding: 23 66164 23
Width: 448
Flags: HW
LayerCount: 2
Fore
SplineSet
43 713 m 1
 343 392 l 1
 343 357 l 1
 43 36 l 1
 0 53 l 1
 0 696 l 1
 43 713 l 1
50 633 m 1
 50 116 l 1
 291 374 l 1
 50 633 l 1
EndSplineSet
EndChar

StartChar: O
Encoding: 24 66115 24
Width: 544
Flags: HW
LayerCount: 2
Fore
SplineSet
188 696 m 1
 238 696 l 1
 238 566 l 1
 424 475 l 1
 403 430 l 1
 238 510 l 1
 238 396 l 1
 424 305 l 1
 403 260 l 1
 238 340 l 1
 238 53 l 1
 188 53 l 1
 188 364 l 1
 0 456 l 1
 22 501 l 1
 188 420 l 1
 188 535 l 1
 2 626 l 1
 24 671 l 1
 188 590 l 1
 188 696 l 1
EndSplineSet
Validated: 1
EndChar
